<svg width="593" height="220" viewBox="0 0 593 220" fill="none" xmlns="http://www.w3.org/2000/svg">
<path d="M55.8 99.6C52.44 110.32 49.04 120.24 45.6 129.36C42.16 138.48 38.72 147.36 35.28 156H23.64C19.4 143.76 15.64 130.84 12.36 117.24C9.16 103.64 6.16 88.84 3.36 72.84H15.6C16.72 79.08 17.88 85.32 19.08 91.56C20.28 97.8 21.52 103.88 22.8 109.8C24.08 115.64 25.36 121.24 26.64 126.6C27.92 131.96 29.24 136.92 30.6 141.48C33.8 133.08 37.2 123.88 40.8 113.88C44.4 103.8 47.76 93.4 50.88 82.68H60.96C64.08 93.4 67.48 103.8 71.16 113.88C74.84 123.88 78.28 133.08 81.48 141.48C82.76 137 84.04 132.08 85.32 126.72C86.6 121.36 87.84 115.76 89.04 109.92C90.32 104 91.56 97.92 92.76 91.68C93.96 85.36 95.12 79.08 96.24 72.84H108.12C105.24 88.84 102.16 103.64 98.88 117.24C95.68 130.84 92 143.76 87.84 156H76.2C72.68 147.36 69.24 138.48 65.88 129.36C62.52 120.24 59.16 110.32 55.8 99.6ZM141.507 92.28C142.467 92.28 143.547 92.36 144.747 92.52C146.027 92.6 147.267 92.76 148.467 93C149.667 93.16 150.747 93.36 151.707 93.6C152.747 93.76 153.507 93.92 153.987 94.08L152.067 103.8C151.187 103.48 149.707 103.12 147.627 102.72C145.627 102.24 143.027 102 139.827 102C137.747 102 135.667 102.24 133.587 102.72C131.587 103.12 130.267 103.4 129.627 103.56V156H118.467V96.24C121.107 95.28 124.387 94.4 128.307 93.6C132.227 92.72 136.627 92.28 141.507 92.28ZM175.916 156H164.756V93.6H175.916V156ZM170.276 82.32C168.276 82.32 166.556 81.68 165.116 80.4C163.756 79.04 163.076 77.24 163.076 75C163.076 72.76 163.756 71 165.116 69.72C166.556 68.36 168.276 67.68 170.276 67.68C172.276 67.68 173.956 68.36 175.316 69.72C176.756 71 177.476 72.76 177.476 75C177.476 77.24 176.756 79.04 175.316 80.4C173.956 81.68 172.276 82.32 170.276 82.32ZM205.548 93.6H229.188V102.96H205.548V131.76C205.548 134.88 205.788 137.48 206.268 139.56C206.748 141.56 207.468 143.16 208.428 144.36C209.388 145.48 210.588 146.28 212.028 146.76C213.468 147.24 215.148 147.48 217.068 147.48C220.428 147.48 223.108 147.12 225.108 146.4C227.188 145.6 228.628 145.04 229.428 144.72L231.588 153.96C230.468 154.52 228.508 155.2 225.708 156C222.908 156.88 219.708 157.32 216.108 157.32C211.868 157.32 208.348 156.8 205.548 155.76C202.828 154.64 200.628 153 198.948 150.84C197.268 148.68 196.068 146.04 195.348 142.92C194.708 139.72 194.388 136.04 194.388 131.88V76.2L205.548 74.28V93.6ZM238.737 124.92C238.737 119.4 239.537 114.6 241.137 110.52C242.737 106.36 244.857 102.92 247.497 100.2C250.137 97.48 253.177 95.44 256.617 94.08C260.057 92.72 263.577 92.04 267.177 92.04C275.577 92.04 282.017 94.68 286.497 99.96C290.977 105.16 293.217 113.12 293.217 123.84C293.217 124.32 293.217 124.96 293.217 125.76C293.217 126.48 293.177 127.16 293.097 127.8H250.377C250.857 134.28 252.737 139.2 256.017 142.56C259.297 145.92 264.417 147.6 271.377 147.6C275.297 147.6 278.577 147.28 281.217 146.64C283.937 145.92 285.977 145.24 287.337 144.6L288.897 153.96C287.537 154.68 285.137 155.44 281.697 156.24C278.337 157.04 274.497 157.44 270.177 157.44C264.737 157.44 260.017 156.64 256.017 155.04C252.097 153.36 248.857 151.08 246.297 148.2C243.737 145.32 241.817 141.92 240.537 138C239.337 134 238.737 129.64 238.737 124.92ZM281.577 118.8C281.657 113.76 280.377 109.64 277.737 106.44C275.177 103.16 271.617 101.52 267.057 101.52C264.497 101.52 262.217 102.04 260.217 103.08C258.297 104.04 256.657 105.32 255.297 106.92C253.937 108.52 252.857 110.36 252.057 112.44C251.337 114.52 250.857 116.64 250.617 118.8H281.577ZM321.968 114.36C321.968 118.92 322.528 123.08 323.648 126.84C324.768 130.52 326.368 133.68 328.448 136.32C330.608 138.88 333.208 140.88 336.248 142.32C339.288 143.76 342.728 144.48 346.568 144.48C350.328 144.48 353.728 143.76 356.768 142.32C359.808 140.88 362.368 138.88 364.448 136.32C366.608 133.68 368.248 130.52 369.368 126.84C370.488 123.08 371.048 118.92 371.048 114.36C371.048 109.8 370.488 105.68 369.368 102C368.248 98.24 366.608 95.08 364.448 92.52C362.368 89.88 359.808 87.84 356.768 86.4C353.728 84.96 350.328 84.24 346.568 84.24C342.728 84.24 339.288 84.96 336.248 86.4C333.208 87.84 330.608 89.88 328.448 92.52C326.368 95.16 324.768 98.32 323.648 102C322.528 105.68 321.968 109.8 321.968 114.36ZM386.888 114.36C386.888 121.48 385.808 127.76 383.648 133.2C381.568 138.64 378.688 143.2 375.008 146.88C371.408 150.48 367.168 153.2 362.288 155.04C357.408 156.88 352.208 157.8 346.688 157.8C341.168 157.8 335.928 156.88 330.968 155.04C326.088 153.2 321.808 150.48 318.128 146.88C314.528 143.2 311.648 138.64 309.488 133.2C307.328 127.76 306.248 121.48 306.248 114.36C306.248 107.24 307.328 101 309.488 95.64C311.648 90.2 314.568 85.64 318.248 81.96C322.008 78.28 326.328 75.52 331.208 73.68C336.088 71.84 341.248 70.92 346.688 70.92C352.128 70.92 357.288 71.84 362.168 73.68C367.048 75.52 371.288 78.28 374.888 81.96C378.568 85.64 381.488 90.2 383.648 95.64C385.808 101 386.888 107.24 386.888 114.36ZM402.756 95.28C405.556 94.48 409.196 93.72 413.676 93C418.156 92.28 423.116 91.92 428.556 91.92C433.676 91.92 437.956 92.64 441.396 94.08C444.836 95.44 447.556 97.4 449.556 99.96C451.636 102.44 453.076 105.48 453.876 109.08C454.756 112.6 455.196 116.48 455.196 120.72V156H440.676V123C440.676 119.64 440.436 116.8 439.956 114.48C439.556 112.08 438.836 110.16 437.796 108.72C436.836 107.2 435.476 106.12 433.716 105.48C432.036 104.76 429.956 104.4 427.476 104.4C425.636 104.4 423.716 104.52 421.716 104.76C419.716 105 418.236 105.2 417.276 105.36V156H402.756V95.28ZM469.471 124.68C469.471 120.04 470.191 115.72 471.631 111.72C473.071 107.64 475.111 104.12 477.751 101.16C480.471 98.2 483.751 95.88 487.591 94.2C491.431 92.52 495.751 91.68 500.551 91.68C506.471 91.68 512.071 92.76 517.351 94.92L514.231 106.8C512.551 106.08 510.631 105.48 508.471 105C506.391 104.52 504.151 104.28 501.751 104.28C496.071 104.28 491.751 106.08 488.791 109.68C485.831 113.2 484.351 118.2 484.351 124.68C484.351 130.92 485.751 135.88 488.551 139.56C491.351 143.16 496.071 144.96 502.711 144.96C505.191 144.96 507.631 144.72 510.031 144.24C512.431 143.76 514.511 143.16 516.271 142.44L518.311 154.44C516.711 155.24 514.271 155.96 510.991 156.6C507.791 157.24 504.471 157.56 501.031 157.56C495.671 157.56 490.991 156.76 486.991 155.16C483.071 153.48 479.791 151.2 477.151 148.32C474.591 145.36 472.671 141.88 471.391 137.88C470.111 133.8 469.471 129.4 469.471 124.68ZM526.073 124.92C526.073 119.4 526.873 114.56 528.473 110.4C530.153 106.24 532.353 102.8 535.073 100.08C537.793 97.28 540.913 95.2 544.433 93.84C547.953 92.4 551.553 91.68 555.233 91.68C563.873 91.68 570.593 94.36 575.393 99.72C580.273 105.08 582.713 113.08 582.713 123.72C582.713 124.52 582.673 125.44 582.593 126.48C582.593 127.44 582.553 128.32 582.473 129.12H541.073C541.473 134.16 543.233 138.08 546.353 140.88C549.553 143.6 554.153 144.96 560.153 144.96C563.673 144.96 566.873 144.64 569.753 144C572.713 143.36 575.033 142.68 576.713 141.96L578.633 153.84C577.833 154.24 576.713 154.68 575.273 155.16C573.913 155.56 572.313 155.92 570.473 156.24C568.713 156.64 566.793 156.96 564.713 157.2C562.633 157.44 560.513 157.56 558.353 157.56C552.833 157.56 548.033 156.76 543.953 155.16C539.873 153.48 536.513 151.2 533.873 148.32C531.233 145.36 529.273 141.92 527.993 138C526.713 134 526.073 129.64 526.073 124.92ZM568.193 118.44C568.193 116.44 567.913 114.56 567.353 112.8C566.793 110.96 565.953 109.4 564.833 108.12C563.793 106.76 562.473 105.72 560.873 105C559.353 104.2 557.513 103.8 555.353 103.8C553.113 103.8 551.153 104.24 549.473 105.12C547.793 105.92 546.353 107 545.153 108.36C544.033 109.72 543.153 111.28 542.513 113.04C541.873 114.8 541.433 116.6 541.193 118.44H568.193Z" fill="#202020"/>
</svg>
