<svg width="485" height="341" viewBox="0 0 485 341" fill="none" xmlns="http://www.w3.org/2000/svg">
<path d="M25.28 32.12C27.68 28.12 30.0267 24.0667 32.32 19.96C34.6133 15.8533 36.6933 11.72 38.56 7.56H49.76C46.7733 13.2133 43.6533 18.84 40.4 24.44C37.2 29.9867 33.76 35.5867 30.08 41.24V63H20V41.4C16.32 35.6933 12.8533 30.04 9.6 24.44C6.34667 18.84 3.22667 13.2133 0.24 7.56H12.08C13.9467 11.72 16 15.8533 18.24 19.96C20.48 24.0667 22.8267 28.12 25.28 32.12ZM89.9375 42.04C89.9375 45.3467 89.4575 48.36 88.4975 51.08C87.5375 53.8 86.1775 56.12 84.4175 58.04C82.6575 59.96 80.5242 61.4533 78.0175 62.52C75.5642 63.5867 72.8442 64.12 69.8575 64.12C66.8708 64.12 64.1508 63.5867 61.6975 62.52C59.2442 61.4533 57.1375 59.96 55.3775 58.04C53.6175 56.12 52.2308 53.8 51.2175 51.08C50.2575 48.36 49.7775 45.3467 49.7775 42.04C49.7775 38.7333 50.2575 35.7467 51.2175 33.08C52.2308 30.36 53.6175 28.04 55.3775 26.12C57.1908 24.2 59.3242 22.7333 61.7775 21.72C64.2308 20.6533 66.9242 20.12 69.8575 20.12C72.7908 20.12 75.4842 20.6533 77.9375 21.72C80.4442 22.7333 82.5775 24.2 84.3375 26.12C86.0975 28.04 87.4575 30.36 88.4175 33.08C89.4308 35.7467 89.9375 38.7333 89.9375 42.04ZM80.0175 42.04C80.0175 37.88 79.1108 34.6 77.2975 32.2C75.5375 29.7467 73.0575 28.52 69.8575 28.52C66.6575 28.52 64.1508 29.7467 62.3375 32.2C60.5775 34.6 59.6975 37.88 59.6975 42.04C59.6975 46.2533 60.5775 49.5867 62.3375 52.04C64.1508 54.4933 66.6575 55.72 69.8575 55.72C73.0575 55.72 75.5375 54.4933 77.2975 52.04C79.1108 49.5867 80.0175 46.2533 80.0175 42.04ZM134.23 61.72C132.363 62.2 129.937 62.68 126.95 63.16C123.963 63.6933 120.683 63.96 117.11 63.96C113.75 63.96 110.923 63.48 108.63 62.52C106.39 61.56 104.577 60.2267 103.19 58.52C101.857 56.8133 100.897 54.7867 100.31 52.44C99.7233 50.04 99.43 47.4267 99.43 44.6V21.16H109.11V43.08C109.11 47.56 109.75 50.76 111.03 52.68C112.363 54.6 114.657 55.56 117.91 55.56C119.083 55.56 120.31 55.5067 121.59 55.4C122.923 55.2933 123.91 55.16 124.55 55V21.16H134.23V61.72ZM170.391 29.88C169.591 29.6133 168.471 29.3467 167.031 29.08C165.644 28.76 164.017 28.6 162.151 28.6C161.084 28.6 159.937 28.7067 158.711 28.92C157.537 29.1333 156.711 29.32 156.231 29.48V63H146.551V23.16C148.417 22.4667 150.737 21.8267 153.511 21.24C156.337 20.6 159.457 20.28 162.871 20.28C163.511 20.28 164.257 20.3333 165.111 20.44C165.964 20.4933 166.817 20.6 167.671 20.76C168.524 20.8667 169.351 21.0267 170.151 21.24C170.951 21.4 171.591 21.56 172.071 21.72L170.391 29.88ZM225.248 42.28C225.248 37.96 224.261 34.6 222.288 32.2C220.368 29.8 217.248 28.6 212.928 28.6C212.021 28.6 211.061 28.6533 210.048 28.76C209.088 28.8133 208.128 28.9733 207.168 29.24V53.16C208.021 53.7467 209.141 54.3067 210.528 54.84C211.968 55.32 213.488 55.56 215.088 55.56C218.608 55.56 221.168 54.36 222.768 51.96C224.421 49.56 225.248 46.3333 225.248 42.28ZM235.168 42.12C235.168 45.32 234.741 48.2533 233.888 50.92C233.088 53.5867 231.915 55.88 230.368 57.8C228.821 59.72 226.875 61.2133 224.528 62.28C222.235 63.3467 219.621 63.88 216.688 63.88C214.715 63.88 212.901 63.64 211.248 63.16C209.595 62.68 208.235 62.1467 207.168 61.56V77.8H197.488V22.52C199.461 21.9867 201.888 21.48 204.768 21C207.648 20.52 210.688 20.28 213.888 20.28C217.195 20.28 220.155 20.7867 222.768 21.8C225.381 22.8133 227.595 24.28 229.408 26.2C231.275 28.0667 232.688 30.36 233.648 33.08C234.661 35.7467 235.168 38.76 235.168 42.12ZM259.704 63.8C256.824 63.7467 254.424 63.4267 252.504 62.84C250.638 62.2533 249.144 61.4267 248.024 60.36C246.904 59.24 246.104 57.88 245.624 56.28C245.198 54.6267 244.984 52.76 244.984 50.68V2.52L254.664 0.919998V48.84C254.664 50.0133 254.744 51 254.904 51.8C255.118 52.6 255.464 53.2933 255.944 53.88C256.424 54.4133 257.064 54.84 257.864 55.16C258.718 55.4267 259.784 55.64 261.064 55.8L259.704 63.8ZM283.614 56.2C286.601 56.2 288.868 56.04 290.414 55.72V45C289.881 44.84 289.108 44.68 288.094 44.52C287.081 44.36 285.961 44.28 284.734 44.28C283.668 44.28 282.574 44.36 281.454 44.52C280.388 44.68 279.401 44.9733 278.494 45.4C277.641 45.8267 276.948 46.44 276.414 47.24C275.881 47.9867 275.614 48.9467 275.614 50.12C275.614 52.4133 276.334 54.0133 277.774 54.92C279.214 55.7733 281.161 56.2 283.614 56.2ZM282.814 20.12C286.014 20.12 288.708 20.52 290.894 21.32C293.081 22.12 294.814 23.24 296.094 24.68C297.428 26.12 298.361 27.88 298.894 29.96C299.481 31.9867 299.774 34.2267 299.774 36.68V62.04C298.281 62.36 296.014 62.7333 292.974 63.16C289.988 63.64 286.601 63.88 282.814 63.88C280.308 63.88 278.014 63.64 275.934 63.16C273.854 62.68 272.068 61.9067 270.574 60.84C269.134 59.7733 267.988 58.3867 267.134 56.68C266.334 54.9733 265.934 52.8667 265.934 50.36C265.934 47.96 266.388 45.9333 267.294 44.28C268.254 42.6267 269.534 41.2933 271.134 40.28C272.734 39.2133 274.574 38.4667 276.654 38.04C278.788 37.56 281.001 37.32 283.294 37.32C284.361 37.32 285.481 37.4 286.654 37.56C287.828 37.6667 289.081 37.88 290.414 38.2V36.6C290.414 35.48 290.281 34.4133 290.014 33.4C289.748 32.3867 289.268 31.5067 288.574 30.76C287.934 29.96 287.054 29.3467 285.934 28.92C284.868 28.4933 283.508 28.28 281.854 28.28C279.614 28.28 277.561 28.44 275.694 28.76C273.828 29.08 272.308 29.4533 271.134 29.88L269.934 22.04C271.161 21.6133 272.948 21.1867 275.294 20.76C277.641 20.3333 280.148 20.12 282.814 20.12ZM309.309 42.12C309.309 39.0267 309.789 36.1467 310.749 33.48C311.709 30.76 313.069 28.4133 314.829 26.44C316.642 24.4667 318.829 22.92 321.389 21.8C323.949 20.68 326.829 20.12 330.029 20.12C333.975 20.12 337.709 20.84 341.229 22.28L339.149 30.2C338.029 29.72 336.749 29.32 335.309 29C333.922 28.68 332.429 28.52 330.829 28.52C327.042 28.52 324.162 29.72 322.189 32.12C320.215 34.4667 319.229 37.8 319.229 42.12C319.229 46.28 320.162 49.5867 322.029 52.04C323.895 54.44 327.042 55.64 331.469 55.64C333.122 55.64 334.749 55.48 336.349 55.16C337.949 54.84 339.335 54.44 340.509 53.96L341.869 61.96C340.802 62.4933 339.175 62.9733 336.989 63.4C334.855 63.8267 332.642 64.04 330.349 64.04C326.775 64.04 323.655 63.5067 320.989 62.44C318.375 61.32 316.189 59.8 314.429 57.88C312.722 55.9067 311.442 53.5867 310.589 50.92C309.735 48.2 309.309 45.2667 309.309 42.12ZM347.043 42.28C347.043 38.6 347.576 35.3733 348.643 32.6C349.763 29.8267 351.23 27.5333 353.043 25.72C354.856 23.8533 356.936 22.4667 359.283 21.56C361.63 20.6 364.03 20.12 366.483 20.12C372.243 20.12 376.723 21.9067 379.923 25.48C383.176 29.0533 384.803 34.3867 384.803 41.48C384.803 42.0133 384.776 42.6267 384.723 43.32C384.723 43.96 384.696 44.5467 384.643 45.08H357.043C357.31 48.44 358.483 51.0533 360.563 52.92C362.696 54.7333 365.763 55.64 369.763 55.64C372.11 55.64 374.243 55.4267 376.163 55C378.136 54.5733 379.683 54.12 380.803 53.64L382.083 61.56C381.55 61.8267 380.803 62.12 379.843 62.44C378.936 62.7067 377.87 62.9467 376.643 63.16C375.47 63.4267 374.19 63.64 372.803 63.8C371.416 63.96 370.003 64.04 368.563 64.04C364.883 64.04 361.683 63.5067 358.963 62.44C356.243 61.32 354.003 59.8 352.243 57.88C350.483 55.9067 349.176 53.6133 348.323 51C347.47 48.3333 347.043 45.4267 347.043 42.28ZM375.123 37.96C375.123 36.6267 374.936 35.3733 374.563 34.2C374.19 32.9733 373.63 31.9333 372.883 31.08C372.19 30.1733 371.31 29.48 370.243 29C369.23 28.4667 368.003 28.2 366.563 28.2C365.07 28.2 363.763 28.4933 362.643 29.08C361.523 29.6133 360.563 30.3333 359.763 31.24C359.016 32.1467 358.43 33.1867 358.003 34.36C357.576 35.5333 357.283 36.7333 357.123 37.96H375.123ZM413.258 10.12L422.938 8.52V21.16H437.818V29.24H422.938V46.28C422.938 49.64 423.471 52.04 424.538 53.48C425.605 54.92 427.418 55.64 429.978 55.64C431.738 55.64 433.285 55.4533 434.618 55.08C436.005 54.7067 437.098 54.36 437.898 54.04L439.498 61.72C438.378 62.2 436.911 62.68 435.098 63.16C433.285 63.6933 431.151 63.96 428.698 63.96C425.711 63.96 423.205 63.56 421.178 62.76C419.205 61.96 417.631 60.8133 416.458 59.32C415.285 57.7733 414.458 55.9333 413.978 53.8C413.498 51.6133 413.258 49.1333 413.258 46.36V10.12ZM484.078 42.04C484.078 45.3467 483.598 48.36 482.638 51.08C481.678 53.8 480.318 56.12 478.558 58.04C476.798 59.96 474.665 61.4533 472.158 62.52C469.705 63.5867 466.985 64.12 463.998 64.12C461.011 64.12 458.291 63.5867 455.838 62.52C453.385 61.4533 451.278 59.96 449.518 58.04C447.758 56.12 446.371 53.8 445.358 51.08C444.398 48.36 443.918 45.3467 443.918 42.04C443.918 38.7333 444.398 35.7467 445.358 33.08C446.371 30.36 447.758 28.04 449.518 26.12C451.331 24.2 453.465 22.7333 455.918 21.72C458.371 20.6533 461.065 20.12 463.998 20.12C466.931 20.12 469.625 20.6533 472.078 21.72C474.585 22.7333 476.718 24.2 478.478 26.12C480.238 28.04 481.598 30.36 482.558 33.08C483.571 35.7467 484.078 38.7333 484.078 42.04ZM474.158 42.04C474.158 37.88 473.251 34.6 471.438 32.2C469.678 29.7467 467.198 28.52 463.998 28.52C460.798 28.52 458.291 29.7467 456.478 32.2C454.718 34.6 453.838 37.88 453.838 42.04C453.838 46.2533 454.718 49.5867 456.478 52.04C458.291 54.4933 460.798 55.72 463.998 55.72C467.198 55.72 469.678 54.4933 471.438 52.04C473.251 49.5867 474.158 46.2533 474.158 42.04ZM3.84 134.12C3.84 131.027 4.32 128.147 5.28 125.48C6.24 122.76 7.6 120.413 9.36 118.44C11.1733 116.467 13.36 114.92 15.92 113.8C18.48 112.68 21.36 112.12 24.56 112.12C28.5067 112.12 32.24 112.84 35.76 114.28L33.68 122.2C32.56 121.72 31.28 121.32 29.84 121C28.4533 120.68 26.96 120.52 25.36 120.52C21.5733 120.52 18.6933 121.72 16.72 124.12C14.7467 126.467 13.76 129.8 13.76 134.12C13.76 138.28 14.6933 141.587 16.56 144.04C18.4267 146.44 21.5733 147.64 26 147.64C27.6533 147.64 29.28 147.48 30.88 147.16C32.48 146.84 33.8667 146.44 35.04 145.96L36.4 153.96C35.3333 154.493 33.7067 154.973 31.52 155.4C29.3867 155.827 27.1733 156.04 24.88 156.04C21.3067 156.04 18.1867 155.507 15.52 154.44C12.9067 153.32 10.72 151.8 8.96 149.88C7.25333 147.907 5.97333 145.587 5.12 142.92C4.26667 140.2 3.84 137.267 3.84 134.12ZM67.7344 121.88C66.9344 121.613 65.8144 121.347 64.3744 121.08C62.9877 120.76 61.361 120.6 59.4944 120.6C58.4277 120.6 57.281 120.707 56.0544 120.92C54.881 121.133 54.0544 121.32 53.5744 121.48V155H43.8944V115.16C45.761 114.467 48.081 113.827 50.8544 113.24C53.681 112.6 56.801 112.28 60.2144 112.28C60.8544 112.28 61.601 112.333 62.4544 112.44C63.3077 112.493 64.161 112.6 65.0144 112.76C65.8677 112.867 66.6944 113.027 67.4944 113.24C68.2944 113.4 68.9344 113.56 69.4144 113.72L67.7344 121.88ZM73.84 134.28C73.84 130.6 74.3733 127.373 75.44 124.6C76.56 121.827 78.0267 119.533 79.84 117.72C81.6533 115.853 83.7333 114.467 86.08 113.56C88.4267 112.6 90.8267 112.12 93.28 112.12C99.04 112.12 103.52 113.907 106.72 117.48C109.973 121.053 111.6 126.387 111.6 133.48C111.6 134.013 111.573 134.627 111.52 135.32C111.52 135.96 111.493 136.547 111.44 137.08H83.84C84.1067 140.44 85.28 143.053 87.36 144.92C89.4933 146.733 92.56 147.64 96.56 147.64C98.9067 147.64 101.04 147.427 102.96 147C104.933 146.573 106.48 146.12 107.6 145.64L108.88 153.56C108.347 153.827 107.6 154.12 106.64 154.44C105.733 154.707 104.667 154.947 103.44 155.16C102.267 155.427 100.987 155.64 99.6 155.8C98.2133 155.96 96.8 156.04 95.36 156.04C91.68 156.04 88.48 155.507 85.76 154.44C83.04 153.32 80.8 151.8 79.04 149.88C77.28 147.907 75.9733 145.613 75.12 143C74.2667 140.333 73.84 137.427 73.84 134.28ZM101.92 129.96C101.92 128.627 101.733 127.373 101.36 126.2C100.987 124.973 100.427 123.933 99.68 123.08C98.9867 122.173 98.1067 121.48 97.04 121C96.0267 120.467 94.8 120.2 93.36 120.2C91.8667 120.2 90.56 120.493 89.44 121.08C88.32 121.613 87.36 122.333 86.56 123.24C85.8133 124.147 85.2267 125.187 84.8 126.36C84.3733 127.533 84.08 128.733 83.92 129.96H101.92ZM136.583 148.2C139.57 148.2 141.836 148.04 143.383 147.72V137C142.85 136.84 142.076 136.68 141.063 136.52C140.05 136.36 138.93 136.28 137.703 136.28C136.636 136.28 135.543 136.36 134.423 136.52C133.356 136.68 132.37 136.973 131.463 137.4C130.61 137.827 129.916 138.44 129.383 139.24C128.85 139.987 128.583 140.947 128.583 142.12C128.583 144.413 129.303 146.013 130.743 146.92C132.183 147.773 134.13 148.2 136.583 148.2ZM135.783 112.12C138.983 112.12 141.676 112.52 143.863 113.32C146.05 114.12 147.783 115.24 149.063 116.68C150.396 118.12 151.33 119.88 151.863 121.96C152.45 123.987 152.743 126.227 152.743 128.68V154.04C151.25 154.36 148.983 154.733 145.943 155.16C142.956 155.64 139.57 155.88 135.783 155.88C133.276 155.88 130.983 155.64 128.903 155.16C126.823 154.68 125.036 153.907 123.543 152.84C122.103 151.773 120.956 150.387 120.103 148.68C119.303 146.973 118.903 144.867 118.903 142.36C118.903 139.96 119.356 137.933 120.263 136.28C121.223 134.627 122.503 133.293 124.103 132.28C125.703 131.213 127.543 130.467 129.623 130.04C131.756 129.56 133.97 129.32 136.263 129.32C137.33 129.32 138.45 129.4 139.623 129.56C140.796 129.667 142.05 129.88 143.383 130.2V128.6C143.383 127.48 143.25 126.413 142.983 125.4C142.716 124.387 142.236 123.507 141.543 122.76C140.903 121.96 140.023 121.347 138.903 120.92C137.836 120.493 136.476 120.28 134.823 120.28C132.583 120.28 130.53 120.44 128.663 120.76C126.796 121.08 125.276 121.453 124.103 121.88L122.903 114.04C124.13 113.613 125.916 113.187 128.263 112.76C130.61 112.333 133.116 112.12 135.783 112.12ZM164.118 102.12L173.798 100.52V113.16H188.678V121.24H173.798V138.28C173.798 141.64 174.331 144.04 175.398 145.48C176.464 146.92 178.278 147.64 180.838 147.64C182.598 147.64 184.144 147.453 185.478 147.08C186.864 146.707 187.958 146.36 188.758 146.04L190.358 153.72C189.238 154.2 187.771 154.68 185.958 155.16C184.144 155.693 182.011 155.96 179.557 155.96C176.571 155.96 174.064 155.56 172.038 154.76C170.064 153.96 168.491 152.813 167.318 151.32C166.144 149.773 165.318 147.933 164.838 145.8C164.358 143.613 164.118 141.133 164.118 138.36V102.12ZM195.012 134.28C195.012 130.6 195.545 127.373 196.612 124.6C197.732 121.827 199.199 119.533 201.012 117.72C202.825 115.853 204.905 114.467 207.252 113.56C209.599 112.6 211.999 112.12 214.452 112.12C220.212 112.12 224.692 113.907 227.892 117.48C231.145 121.053 232.772 126.387 232.772 133.48C232.772 134.013 232.745 134.627 232.692 135.32C232.692 135.96 232.665 136.547 232.612 137.08H205.012C205.279 140.44 206.452 143.053 208.532 144.92C210.665 146.733 213.732 147.64 217.732 147.64C220.079 147.64 222.212 147.427 224.132 147C226.105 146.573 227.652 146.12 228.772 145.64L230.052 153.56C229.519 153.827 228.772 154.12 227.812 154.44C226.905 154.707 225.839 154.947 224.612 155.16C223.439 155.427 222.159 155.64 220.772 155.8C219.385 155.96 217.972 156.04 216.532 156.04C212.852 156.04 209.652 155.507 206.932 154.44C204.212 153.32 201.972 151.8 200.212 149.88C198.452 147.907 197.145 145.613 196.292 143C195.439 140.333 195.012 137.427 195.012 134.28ZM223.092 129.96C223.092 128.627 222.905 127.373 222.532 126.2C222.159 124.973 221.599 123.933 220.852 123.08C220.159 122.173 219.279 121.48 218.212 121C217.199 120.467 215.972 120.2 214.532 120.2C213.039 120.2 211.732 120.493 210.612 121.08C209.492 121.613 208.532 122.333 207.732 123.24C206.985 124.147 206.399 125.187 205.972 126.36C205.545 127.533 205.252 128.733 205.092 129.96H223.092ZM299.547 134.04C299.547 137.347 299.067 140.36 298.107 143.08C297.147 145.8 295.787 148.12 294.027 150.04C292.267 151.96 290.134 153.453 287.627 154.52C285.174 155.587 282.454 156.12 279.467 156.12C276.48 156.12 273.76 155.587 271.307 154.52C268.854 153.453 266.747 151.96 264.987 150.04C263.227 148.12 261.84 145.8 260.827 143.08C259.867 140.36 259.387 137.347 259.387 134.04C259.387 130.733 259.867 127.747 260.827 125.08C261.84 122.36 263.227 120.04 264.987 118.12C266.8 116.2 268.934 114.733 271.387 113.72C273.84 112.653 276.534 112.12 279.467 112.12C282.4 112.12 285.094 112.653 287.547 113.72C290.054 114.733 292.187 116.2 293.947 118.12C295.707 120.04 297.067 122.36 298.027 125.08C299.04 127.747 299.547 130.733 299.547 134.04ZM289.627 134.04C289.627 129.88 288.72 126.6 286.907 124.2C285.147 121.747 282.667 120.52 279.467 120.52C276.267 120.52 273.76 121.747 271.947 124.2C270.187 126.6 269.307 129.88 269.307 134.04C269.307 138.253 270.187 141.587 271.947 144.04C273.76 146.493 276.267 147.72 279.467 147.72C282.667 147.72 285.147 146.493 286.907 144.04C288.72 141.587 289.627 138.253 289.627 134.04ZM309.519 114.52C311.386 113.987 313.813 113.48 316.799 113C319.786 112.52 323.093 112.28 326.719 112.28C330.133 112.28 332.986 112.76 335.279 113.72C337.573 114.627 339.386 115.933 340.719 117.64C342.106 119.293 343.066 121.32 343.599 123.72C344.186 126.067 344.479 128.653 344.479 131.48V155H334.799V133C334.799 130.76 334.639 128.867 334.319 127.32C334.053 125.72 333.573 124.44 332.879 123.48C332.239 122.467 331.333 121.747 330.159 121.32C329.039 120.84 327.653 120.6 325.999 120.6C324.773 120.6 323.493 120.68 322.159 120.84C320.826 121 319.839 121.133 319.199 121.24V155H309.519V114.52ZM370.876 155.8C367.996 155.747 365.596 155.427 363.676 154.84C361.81 154.253 360.316 153.427 359.196 152.36C358.076 151.24 357.276 149.88 356.796 148.28C356.37 146.627 356.156 144.76 356.156 142.68V94.52L365.836 92.92V140.84C365.836 142.013 365.916 143 366.076 143.8C366.29 144.6 366.636 145.293 367.116 145.88C367.596 146.413 368.236 146.84 369.036 147.16C369.89 147.427 370.956 147.64 372.236 147.8L370.876 155.8ZM389.826 155H380.146V113.16H389.826V155ZM390.866 100.92C390.866 102.733 390.28 104.173 389.106 105.24C387.933 106.307 386.546 106.84 384.946 106.84C383.293 106.84 381.88 106.307 380.706 105.24C379.533 104.173 378.946 102.733 378.946 100.92C378.946 99.0533 379.533 97.5867 380.706 96.52C381.88 95.4533 383.293 94.92 384.946 94.92C386.546 94.92 387.933 95.4533 389.106 96.52C390.28 97.5867 390.866 99.0533 390.866 100.92ZM402.176 114.52C404.042 113.987 406.469 113.48 409.456 113C412.442 112.52 415.749 112.28 419.376 112.28C422.789 112.28 425.642 112.76 427.936 113.72C430.229 114.627 432.042 115.933 433.376 117.64C434.762 119.293 435.722 121.32 436.256 123.72C436.842 126.067 437.136 128.653 437.136 131.48V155H427.456V133C427.456 130.76 427.296 128.867 426.976 127.32C426.709 125.72 426.229 124.44 425.536 123.48C424.896 122.467 423.989 121.747 422.816 121.32C421.696 120.84 420.309 120.6 418.656 120.6C417.429 120.6 416.149 120.68 414.816 120.84C413.482 121 412.496 121.133 411.856 121.24V155H402.176V114.52ZM446.653 134.28C446.653 130.6 447.186 127.373 448.253 124.6C449.373 121.827 450.839 119.533 452.653 117.72C454.466 115.853 456.546 114.467 458.893 113.56C461.239 112.6 463.639 112.12 466.093 112.12C471.853 112.12 476.333 113.907 479.533 117.48C482.786 121.053 484.413 126.387 484.413 133.48C484.413 134.013 484.386 134.627 484.333 135.32C484.333 135.96 484.306 136.547 484.253 137.08H456.653C456.919 140.44 458.093 143.053 460.173 144.92C462.306 146.733 465.373 147.64 469.373 147.64C471.719 147.64 473.853 147.427 475.773 147C477.746 146.573 479.293 146.12 480.413 145.64L481.693 153.56C481.159 153.827 480.413 154.12 479.453 154.44C478.546 154.707 477.479 154.947 476.253 155.16C475.079 155.427 473.799 155.64 472.413 155.8C471.026 155.96 469.613 156.04 468.173 156.04C464.493 156.04 461.293 155.507 458.573 154.44C455.853 153.32 453.613 151.8 451.853 149.88C450.093 147.907 448.786 145.613 447.933 143C447.079 140.333 446.653 137.427 446.653 134.28ZM474.733 129.96C474.733 128.627 474.546 127.373 474.173 126.2C473.799 124.973 473.239 123.933 472.493 123.08C471.799 122.173 470.919 121.48 469.853 121C468.839 120.467 467.613 120.2 466.173 120.2C464.679 120.2 463.373 120.493 462.253 121.08C461.133 121.613 460.173 122.333 459.373 123.24C458.626 124.147 458.039 125.187 457.613 126.36C457.186 127.533 456.893 128.733 456.733 129.96H474.733ZM13.76 225.96C13.76 230.227 14.7733 233.587 16.8 236.04C18.8267 238.44 21.6267 239.64 25.2 239.64C26.7467 239.64 28.0533 239.587 29.12 239.48C30.24 239.32 31.1467 239.16 31.84 239V215C30.9867 214.413 29.84 213.88 28.4 213.4C27.0133 212.867 25.52 212.6 23.92 212.6C20.4 212.6 17.8133 213.8 16.16 216.2C14.56 218.6 13.76 221.853 13.76 225.96ZM41.52 245.72C39.6 246.307 37.1733 246.84 34.24 247.32C31.36 247.8 28.32 248.04 25.12 248.04C21.8133 248.04 18.8533 247.533 16.24 246.52C13.6267 245.507 11.3867 244.067 9.52 242.2C7.70667 240.28 6.29333 237.987 5.28 235.32C4.32 232.6 3.84 229.56 3.84 226.2C3.84 222.893 4.24 219.907 5.04 217.24C5.89333 214.52 7.12 212.2 8.72 210.28C10.32 208.36 12.2667 206.893 14.56 205.88C16.8533 204.813 19.4933 204.28 22.48 204.28C24.5067 204.28 26.2933 204.52 27.84 205C29.3867 205.48 30.72 206.013 31.84 206.6V186.52L41.52 184.92V245.72ZM63.5763 247H53.8963V205.16H63.5763V247ZM64.6163 192.92C64.6163 194.733 64.0296 196.173 62.8563 197.24C61.6829 198.307 60.2963 198.84 58.6963 198.84C57.0429 198.84 55.6296 198.307 54.4563 197.24C53.2829 196.173 52.6963 194.733 52.6963 192.92C52.6963 191.053 53.2829 189.587 54.4563 188.52C55.6296 187.453 57.0429 186.92 58.6963 186.92C60.2963 186.92 61.6829 187.453 62.8563 188.52C64.0296 189.587 64.6163 191.053 64.6163 192.92ZM83.5256 225C83.5256 229.107 84.4056 232.12 86.1656 234.04C87.979 235.907 90.299 236.84 93.1256 236.84C94.6723 236.84 96.1123 236.627 97.4456 236.2C98.8323 235.773 99.9523 235.267 100.806 234.68V213C100.112 212.84 99.259 212.707 98.2456 212.6C97.2323 212.44 95.9523 212.36 94.4056 212.36C90.8856 212.36 88.1923 213.533 86.3256 215.88C84.459 218.173 83.5256 221.213 83.5256 225ZM110.486 242.76C110.486 249.427 108.779 254.307 105.366 257.4C102.006 260.493 96.8323 262.04 89.8456 262.04C87.2856 262.04 84.779 261.827 82.3256 261.4C79.9256 260.973 77.739 260.413 75.7656 259.72L77.5256 251.48C79.179 252.173 81.0456 252.733 83.1256 253.16C85.259 253.587 87.5523 253.8 90.0056 253.8C93.899 253.8 96.6723 253 98.3256 251.4C99.979 249.8 100.806 247.427 100.806 244.28V242.68C99.8456 243.16 98.5656 243.64 96.9656 244.12C95.419 244.6 93.6323 244.84 91.6056 244.84C88.939 244.84 86.4856 244.413 84.2456 243.56C82.059 242.707 80.1656 241.453 78.5656 239.8C77.019 238.147 75.7923 236.093 74.8856 233.64C74.0323 231.133 73.6056 228.253 73.6056 225C73.6056 221.96 74.059 219.16 74.9656 216.6C75.9256 214.04 77.2856 211.853 79.0456 210.04C80.859 208.227 83.0456 206.813 85.6056 205.8C88.1656 204.787 91.0723 204.28 94.3256 204.28C97.4723 204.28 100.459 204.52 103.286 205C106.112 205.48 108.512 205.987 110.486 206.52V242.76ZM132.561 247H122.881V205.16H132.561V247ZM133.601 192.92C133.601 194.733 133.014 196.173 131.841 197.24C130.667 198.307 129.281 198.84 127.681 198.84C126.027 198.84 124.614 198.307 123.441 197.24C122.267 196.173 121.681 194.733 121.681 192.92C121.681 191.053 122.267 189.587 123.441 188.52C124.614 187.453 126.027 186.92 127.681 186.92C129.281 186.92 130.667 187.453 131.841 188.52C133.014 189.587 133.601 191.053 133.601 192.92ZM144.43 194.12L154.11 192.52V205.16H168.99V213.24H154.11V230.28C154.11 233.64 154.643 236.04 155.71 237.48C156.777 238.92 158.59 239.64 161.15 239.64C162.91 239.64 164.457 239.453 165.79 239.08C167.177 238.707 168.27 238.36 169.07 238.04L170.67 245.72C169.55 246.2 168.083 246.68 166.27 247.16C164.457 247.693 162.323 247.96 159.87 247.96C156.883 247.96 154.377 247.56 152.35 246.76C150.377 245.96 148.803 244.813 147.63 243.32C146.457 241.773 145.63 239.933 145.15 237.8C144.67 235.613 144.43 233.133 144.43 230.36V194.12ZM193.068 240.2C196.054 240.2 198.321 240.04 199.868 239.72V229C199.334 228.84 198.561 228.68 197.548 228.52C196.534 228.36 195.414 228.28 194.188 228.28C193.121 228.28 192.028 228.36 190.908 228.52C189.841 228.68 188.854 228.973 187.948 229.4C187.094 229.827 186.401 230.44 185.868 231.24C185.334 231.987 185.068 232.947 185.068 234.12C185.068 236.413 185.788 238.013 187.228 238.92C188.668 239.773 190.614 240.2 193.068 240.2ZM192.268 204.12C195.468 204.12 198.161 204.52 200.348 205.32C202.534 206.12 204.268 207.24 205.548 208.68C206.881 210.12 207.814 211.88 208.348 213.96C208.934 215.987 209.228 218.227 209.228 220.68V246.04C207.734 246.36 205.468 246.733 202.428 247.16C199.441 247.64 196.054 247.88 192.268 247.88C189.761 247.88 187.468 247.64 185.388 247.16C183.308 246.68 181.521 245.907 180.028 244.84C178.588 243.773 177.441 242.387 176.588 240.68C175.788 238.973 175.388 236.867 175.388 234.36C175.388 231.96 175.841 229.933 176.748 228.28C177.708 226.627 178.988 225.293 180.588 224.28C182.188 223.213 184.028 222.467 186.108 222.04C188.241 221.56 190.454 221.32 192.747 221.32C193.814 221.32 194.934 221.4 196.108 221.56C197.281 221.667 198.534 221.88 199.868 222.2V220.6C199.868 219.48 199.734 218.413 199.468 217.4C199.201 216.387 198.721 215.507 198.028 214.76C197.388 213.96 196.508 213.347 195.388 212.92C194.321 212.493 192.961 212.28 191.308 212.28C189.068 212.28 187.014 212.44 185.148 212.76C183.281 213.08 181.761 213.453 180.588 213.88L179.388 206.04C180.614 205.613 182.401 205.187 184.748 204.76C187.094 204.333 189.601 204.12 192.268 204.12ZM235.642 247.8C232.762 247.747 230.362 247.427 228.442 246.84C226.575 246.253 225.082 245.427 223.962 244.36C222.842 243.24 222.042 241.88 221.562 240.28C221.135 238.627 220.922 236.76 220.922 234.68V186.52L230.602 184.92V232.84C230.602 234.013 230.682 235 230.842 235.8C231.055 236.6 231.402 237.293 231.882 237.88C232.362 238.413 233.002 238.84 233.802 239.16C234.655 239.427 235.722 239.64 237.002 239.8L235.642 247.8ZM3.84 318.12C3.84 315.027 4.32 312.147 5.28 309.48C6.24 306.76 7.6 304.413 9.36 302.44C11.1733 300.467 13.36 298.92 15.92 297.8C18.48 296.68 21.36 296.12 24.56 296.12C28.5067 296.12 32.24 296.84 35.76 298.28L33.68 306.2C32.56 305.72 31.28 305.32 29.84 305C28.4533 304.68 26.96 304.52 25.36 304.52C21.5733 304.52 18.6933 305.72 16.72 308.12C14.7467 310.467 13.76 313.8 13.76 318.12C13.76 322.28 14.6933 325.587 16.56 328.04C18.4267 330.44 21.5733 331.64 26 331.64C27.6533 331.64 29.28 331.48 30.88 331.16C32.48 330.84 33.8667 330.44 35.04 329.96L36.4 337.96C35.3333 338.493 33.7067 338.973 31.52 339.4C29.3867 339.827 27.1733 340.04 24.88 340.04C21.3067 340.04 18.1867 339.507 15.52 338.44C12.9067 337.32 10.72 335.8 8.96 333.88C7.25333 331.907 5.97333 329.587 5.12 326.92C4.26667 324.2 3.84 321.267 3.84 318.12ZM41.5744 318.28C41.5744 314.6 42.1077 311.373 43.1744 308.6C44.2944 305.827 45.761 303.533 47.5744 301.72C49.3877 299.853 51.4677 298.467 53.8144 297.56C56.161 296.6 58.561 296.12 61.0144 296.12C66.7744 296.12 71.2544 297.907 74.4544 301.48C77.7077 305.053 79.3344 310.387 79.3344 317.48C79.3344 318.013 79.3077 318.627 79.2544 319.32C79.2544 319.96 79.2277 320.547 79.1744 321.08H51.5744C51.841 324.44 53.0144 327.053 55.0944 328.92C57.2277 330.733 60.2944 331.64 64.2944 331.64C66.641 331.64 68.7744 331.427 70.6944 331C72.6677 330.573 74.2144 330.12 75.3344 329.64L76.6144 337.56C76.081 337.827 75.3344 338.12 74.3744 338.44C73.4677 338.707 72.401 338.947 71.1744 339.16C70.001 339.427 68.721 339.64 67.3344 339.8C65.9477 339.96 64.5344 340.04 63.0944 340.04C59.4144 340.04 56.2144 339.507 53.4944 338.44C50.7744 337.32 48.5344 335.8 46.7744 333.88C45.0144 331.907 43.7077 329.613 42.8544 327C42.001 324.333 41.5744 321.427 41.5744 318.28ZM69.6544 313.96C69.6544 312.627 69.4677 311.373 69.0944 310.2C68.721 308.973 68.161 307.933 67.4144 307.08C66.721 306.173 65.841 305.48 64.7744 305C63.761 304.467 62.5344 304.2 61.0944 304.2C59.601 304.2 58.2944 304.493 57.1744 305.08C56.0544 305.613 55.0944 306.333 54.2944 307.24C53.5477 308.147 52.961 309.187 52.5344 310.36C52.1077 311.533 51.8144 312.733 51.6544 313.96H69.6544ZM113.438 305.88C112.638 305.613 111.518 305.347 110.078 305.08C108.691 304.76 107.064 304.6 105.198 304.6C104.131 304.6 102.984 304.707 101.758 304.92C100.584 305.133 99.7575 305.32 99.2775 305.48V339H89.5975V299.16C91.4642 298.467 93.7842 297.827 96.5575 297.24C99.3842 296.6 102.504 296.28 105.918 296.28C106.558 296.28 107.304 296.333 108.158 296.44C109.011 296.493 109.864 296.6 110.718 296.76C111.571 296.867 112.398 297.027 113.198 297.24C113.998 297.4 114.638 297.56 115.118 297.72L113.438 305.88ZM121.383 286.12L131.063 284.52V297.16H145.943V305.24H131.063V322.28C131.063 325.64 131.596 328.04 132.663 329.48C133.73 330.92 135.543 331.64 138.103 331.64C139.863 331.64 141.41 331.453 142.743 331.08C144.13 330.707 145.223 330.36 146.023 330.04L147.623 337.72C146.503 338.2 145.036 338.68 143.223 339.16C141.41 339.693 139.276 339.96 136.823 339.96C133.836 339.96 131.33 339.56 129.303 338.76C127.33 337.96 125.756 336.813 124.583 335.32C123.41 333.773 122.583 331.933 122.103 329.8C121.623 327.613 121.383 325.133 121.383 322.36V286.12ZM165.061 339H155.381V297.16H165.061V339ZM166.101 284.92C166.101 286.733 165.514 288.173 164.341 289.24C163.167 290.307 161.781 290.84 160.181 290.84C158.527 290.84 157.114 290.307 155.941 289.24C154.767 288.173 154.181 286.733 154.181 284.92C154.181 283.053 154.767 281.587 155.941 280.52C157.114 279.453 158.527 278.92 160.181 278.92C161.781 278.92 163.167 279.453 164.341 280.52C165.514 281.587 166.101 283.053 166.101 284.92ZM219.41 339H209.73V297.16H219.41V339ZM220.53 284.92C220.53 286.733 219.943 288.173 218.77 289.24C217.597 290.307 216.21 290.84 214.61 290.84C212.957 290.84 211.543 290.307 210.37 289.24C209.197 288.173 208.61 286.733 208.61 284.92C208.61 283.053 209.197 281.587 210.37 280.52C211.543 279.453 212.957 278.92 214.61 278.92C216.21 278.92 217.597 279.453 218.77 280.52C219.943 281.587 220.53 283.053 220.53 284.92ZM194.61 276.92C196.637 276.92 198.343 277.08 199.73 277.4C201.17 277.72 202.29 278.04 203.09 278.36L201.57 286.2C200.823 285.933 199.917 285.693 198.85 285.48C197.837 285.267 196.717 285.16 195.49 285.16C192.29 285.16 190.077 286.013 188.85 287.72C187.677 289.427 187.09 291.64 187.09 294.36V297.16H202.45V305.24H187.09V339H177.41V294.2C177.41 288.76 178.823 284.52 181.65 281.48C184.477 278.44 188.797 276.92 194.61 276.92ZM229.465 318.12C229.465 315.027 229.945 312.147 230.905 309.48C231.865 306.76 233.225 304.413 234.985 302.44C236.798 300.467 238.985 298.92 241.545 297.8C244.105 296.68 246.985 296.12 250.185 296.12C254.132 296.12 257.865 296.84 261.385 298.28L259.305 306.2C258.185 305.72 256.905 305.32 255.465 305C254.078 304.68 252.585 304.52 250.985 304.52C247.198 304.52 244.318 305.72 242.345 308.12C240.372 310.467 239.385 313.8 239.385 318.12C239.385 322.28 240.318 325.587 242.185 328.04C244.052 330.44 247.198 331.64 251.625 331.64C253.278 331.64 254.905 331.48 256.505 331.16C258.105 330.84 259.492 330.44 260.665 329.96L262.025 337.96C260.958 338.493 259.332 338.973 257.145 339.4C255.012 339.827 252.798 340.04 250.505 340.04C246.932 340.04 243.812 339.507 241.145 338.44C238.532 337.32 236.345 335.8 234.585 333.88C232.878 331.907 231.598 329.587 230.745 326.92C229.892 324.2 229.465 321.267 229.465 318.12ZM284.239 332.2C287.226 332.2 289.493 332.04 291.039 331.72V321C290.506 320.84 289.733 320.68 288.719 320.52C287.706 320.36 286.586 320.28 285.359 320.28C284.293 320.28 283.199 320.36 282.079 320.52C281.013 320.68 280.026 320.973 279.119 321.4C278.266 321.827 277.573 322.44 277.039 323.24C276.506 323.987 276.239 324.947 276.239 326.12C276.239 328.413 276.959 330.013 278.399 330.92C279.839 331.773 281.786 332.2 284.239 332.2ZM283.439 296.12C286.639 296.12 289.333 296.52 291.519 297.32C293.706 298.12 295.439 299.24 296.719 300.68C298.053 302.12 298.986 303.88 299.519 305.96C300.106 307.987 300.399 310.227 300.399 312.68V338.04C298.906 338.36 296.639 338.733 293.599 339.16C290.613 339.64 287.226 339.88 283.439 339.88C280.933 339.88 278.639 339.64 276.559 339.16C274.479 338.68 272.693 337.907 271.199 336.84C269.759 335.773 268.613 334.387 267.759 332.68C266.959 330.973 266.559 328.867 266.559 326.36C266.559 323.96 267.013 321.933 267.919 320.28C268.879 318.627 270.159 317.293 271.759 316.28C273.359 315.213 275.199 314.467 277.279 314.04C279.413 313.56 281.626 313.32 283.919 313.32C284.986 313.32 286.106 313.4 287.279 313.56C288.453 313.667 289.706 313.88 291.039 314.2V312.6C291.039 311.48 290.906 310.413 290.639 309.4C290.373 308.387 289.893 307.507 289.199 306.76C288.559 305.96 287.679 305.347 286.559 304.92C285.493 304.493 284.133 304.28 282.479 304.28C280.239 304.28 278.186 304.44 276.319 304.76C274.453 305.08 272.933 305.453 271.759 305.88L270.559 298.04C271.786 297.613 273.573 297.187 275.919 296.76C278.266 296.333 280.773 296.12 283.439 296.12ZM311.774 286.12L321.454 284.52V297.16H336.334V305.24H321.454V322.28C321.454 325.64 321.987 328.04 323.054 329.48C324.12 330.92 325.934 331.64 328.494 331.64C330.254 331.64 331.8 331.453 333.134 331.08C334.52 330.707 335.614 330.36 336.414 330.04L338.014 337.72C336.894 338.2 335.427 338.68 333.614 339.16C331.8 339.693 329.667 339.96 327.214 339.96C324.227 339.96 321.72 339.56 319.694 338.76C317.72 337.96 316.147 336.813 314.974 335.32C313.8 333.773 312.974 331.933 312.494 329.8C312.014 327.613 311.774 325.133 311.774 322.36V286.12ZM342.668 318.28C342.668 314.6 343.201 311.373 344.268 308.6C345.388 305.827 346.855 303.533 348.668 301.72C350.481 299.853 352.561 298.467 354.908 297.56C357.255 296.6 359.655 296.12 362.108 296.12C367.868 296.12 372.348 297.907 375.548 301.48C378.801 305.053 380.428 310.387 380.428 317.48C380.428 318.013 380.401 318.627 380.348 319.32C380.348 319.96 380.321 320.547 380.268 321.08H352.668C352.935 324.44 354.108 327.053 356.188 328.92C358.321 330.733 361.388 331.64 365.388 331.64C367.735 331.64 369.868 331.427 371.788 331C373.761 330.573 375.308 330.12 376.428 329.64L377.708 337.56C377.175 337.827 376.428 338.12 375.468 338.44C374.561 338.707 373.495 338.947 372.268 339.16C371.095 339.427 369.815 339.64 368.428 339.8C367.041 339.96 365.628 340.04 364.188 340.04C360.508 340.04 357.308 339.507 354.588 338.44C351.868 337.32 349.628 335.8 347.868 333.88C346.108 331.907 344.801 329.613 343.948 327C343.095 324.333 342.668 321.427 342.668 318.28ZM370.748 313.96C370.748 312.627 370.561 311.373 370.188 310.2C369.815 308.973 369.255 307.933 368.508 307.08C367.815 306.173 366.935 305.48 365.868 305C364.855 304.467 363.628 304.2 362.188 304.2C360.695 304.2 359.388 304.493 358.268 305.08C357.148 305.613 356.188 306.333 355.388 307.24C354.641 308.147 354.055 309.187 353.628 310.36C353.201 311.533 352.908 312.733 352.748 313.96H370.748ZM401.171 332.04C403.731 332.04 405.598 331.747 406.771 331.16C407.945 330.52 408.531 329.453 408.531 327.96C408.531 326.573 407.891 325.427 406.611 324.52C405.385 323.613 403.331 322.627 400.451 321.56C398.691 320.92 397.065 320.253 395.571 319.56C394.131 318.813 392.878 317.96 391.811 317C390.745 316.04 389.891 314.893 389.251 313.56C388.665 312.173 388.371 310.493 388.371 308.52C388.371 304.68 389.785 301.667 392.611 299.48C395.438 297.24 399.278 296.12 404.131 296.12C406.585 296.12 408.931 296.36 411.171 296.84C413.411 297.267 415.091 297.693 416.211 298.12L414.451 305.96C413.385 305.48 412.025 305.053 410.371 304.68C408.718 304.253 406.798 304.04 404.611 304.04C402.638 304.04 401.038 304.387 399.811 305.08C398.585 305.72 397.971 306.733 397.971 308.12C397.971 308.813 398.078 309.427 398.291 309.96C398.558 310.493 398.985 311 399.571 311.48C400.158 311.907 400.931 312.36 401.891 312.84C402.851 313.267 404.025 313.72 405.411 314.2C407.705 315.053 409.651 315.907 411.251 316.76C412.851 317.56 414.158 318.493 415.171 319.56C416.238 320.573 417.011 321.747 417.491 323.08C417.971 324.413 418.211 326.013 418.211 327.88C418.211 331.88 416.718 334.92 413.731 337C410.798 339.027 406.585 340.04 401.091 340.04C397.411 340.04 394.451 339.72 392.211 339.08C389.971 338.493 388.398 338.013 387.491 337.64L389.171 329.56C390.611 330.147 392.318 330.707 394.291 331.24C396.318 331.773 398.611 332.04 401.171 332.04ZM438.134 333.72C438.134 335.587 437.494 337.107 436.214 338.28C434.987 339.453 433.494 340.04 431.734 340.04C429.92 340.04 428.4 339.453 427.174 338.28C425.947 337.107 425.334 335.587 425.334 333.72C425.334 331.853 425.947 330.333 427.174 329.16C428.4 327.933 429.92 327.32 431.734 327.32C433.494 327.32 434.987 327.933 436.214 329.16C437.494 330.333 438.134 331.853 438.134 333.72Z" fill="#202020"/>
</svg>
